<svg width="8" height="14" viewBox="0 0 8 14" fill="none" xmlns="http://www.w3.org/2000/svg">
<g clip-path="url(#clip0_332_1308)">
<path d="M0.40686 7.00471C0.410549 6.86916 0.436374 6.7452 0.484334 6.63286C0.532294 6.52052 0.606079 6.41206 0.705686 6.30747L6.25061 0.67124C6.40925 0.504671 6.60478 0.421387 6.83723 0.421387C6.99216 0.421387 7.13236 0.460123 7.25776 0.537597C7.38689 0.615071 7.48836 0.719663 7.56216 0.851368C7.63963 0.983073 7.67836 1.13028 7.67836 1.29297C7.67836 1.53314 7.59163 1.74425 7.41823 1.92632L2.40458 6.99893L7.41823 12.0773C7.59163 12.2633 7.67836 12.4744 7.67836 12.7107C7.67836 12.8773 7.63963 13.0264 7.56216 13.1581C7.48836 13.2898 7.38689 13.3944 7.25776 13.4719C7.13236 13.5532 6.99216 13.5939 6.83723 13.5939C6.60478 13.5939 6.40925 13.5087 6.25061 13.3382L0.705686 7.70198C0.60239 7.5974 0.52676 7.48897 0.4788 7.37662C0.43084 7.26042 0.40686 7.13645 0.40686 7.00471Z" fill="#D53E76"/>
</g>
<defs>
<clipPath id="clip0_332_1308">
<rect width="8" height="14" fill="white"/>
</clipPath>
</defs>
</svg>
