<svg width="6" height="10" viewBox="0 0 6 10" fill="none" xmlns="http://www.w3.org/2000/svg">
<g clip-path="url(#clip0_332_1308)">
<path d="M0 4.99778C0.00266321 4.89487 0.0213086 4.80077 0.0559355 4.71549C0.090563 4.6302 0.143835 4.54787 0.215751 4.46846L4.21917 0.189678C4.3337 0.0632261 4.47488 0 4.6427 0C4.75457 0 4.85579 0.0294072 4.94633 0.0882221C5.03956 0.147037 5.11282 0.226439 5.1661 0.326424C5.22203 0.426408 5.25 0.538159 5.25 0.661669C5.25 0.843996 5.18738 1.00426 5.06218 1.14248L1.44235 4.99339L5.06218 8.8487C5.18738 8.98984 5.25 9.15011 5.25 9.32952C5.25 9.45599 5.22203 9.56918 5.1661 9.6692C5.11282 9.76915 5.03956 9.84855 4.94633 9.90737C4.85579 9.96912 4.75457 10 4.6427 10C4.47488 10 4.3337 9.93533 4.21917 9.80593L0.215751 5.52712C0.141172 5.44773 0.0865674 5.36541 0.0519405 5.28012C0.0173135 5.19191 0 5.09779 0 4.99778Z" fill="#D53E76"/>
</g>
<defs>
<clipPath id="clip0_332_1308">
<rect width="6" height="10" fill="white"/>
</clipPath>
</defs>
</svg>
