<svg width="33" height="32" viewBox="0 0 33 32" fill="none" xmlns="http://www.w3.org/2000/svg">
<path d="M27.1667 9.3335H5.83334C4.36058 9.3335 3.16667 10.5274 3.16667 12.0002V25.3335C3.16667 26.8063 4.36058 28.0002 5.83334 28.0002H27.1667C28.6394 28.0002 29.8333 26.8063 29.8333 25.3335V12.0002C29.8333 10.5274 28.6394 9.3335 27.1667 9.3335Z" stroke="#D53E76" stroke-width="2" stroke-linecap="round" stroke-linejoin="round"/>
<path d="M21.8333 28V6.66667C21.8333 5.95942 21.5524 5.28115 21.0523 4.78105C20.5522 4.28095 19.8739 4 19.1667 4H13.8333C13.1261 4 12.4478 4.28095 11.9477 4.78105C11.4476 5.28115 11.1667 5.95942 11.1667 6.66667V28" stroke="#D53E76" stroke-width="2" stroke-linecap="round" stroke-linejoin="round"/>
</svg>
