<svg width="11" height="19" viewBox="0 0 11 19" fill="none" xmlns="http://www.w3.org/2000/svg">
<path d="M5.53125 4.71473L8.91437 7.88794C9.16596 8.12392 9.57015 8.12036 9.81715 7.88C10.0642 7.63963 10.0604 7.25348 9.80884 7.0175L5.97849 3.42481C5.73017 3.19189 5.33234 3.19189 5.08401 3.42481L1.25365 7.01749C1.00206 7.25348 0.998343 7.63963 1.24535 7.88C1.49235 8.12036 1.89654 8.12392 2.14813 7.88793L5.53125 4.71473Z" fill="#D53E76"/>
<path d="M5.46875 14.2853L2.08563 11.1121C1.83404 10.8761 1.42985 10.8796 1.18285 11.12C0.935843 11.3604 0.939564 11.7465 1.19116 11.9825L5.02151 15.5752C5.26983 15.8081 5.66766 15.8081 5.91599 15.5752L9.74635 11.9825C9.99794 11.7465 10.0017 11.3604 9.75465 11.12C9.50765 10.8796 9.10346 10.8761 8.85187 11.1121L5.46875 14.2853Z" fill="#D53E76"/>
</svg>
