<svg width="16" height="19" viewBox="0 0 16 19" fill="none" xmlns="http://www.w3.org/2000/svg">
<path d="M6.92484 18.283C6.48815 18.283 6.12009 18.0989 5.82065 17.7309L2.01211 12.9866C1.89358 12.8431 1.80936 12.7058 1.75945 12.5748C1.70955 12.4376 1.68459 12.2972 1.68459 12.1538C1.68459 11.8356 1.79065 11.5736 2.00275 11.3677C2.21486 11.1556 2.48623 11.0496 2.81686 11.0496C3.18493 11.0496 3.49373 11.2086 3.74326 11.5268L6.88741 15.5693L12.9698 5.89353C13.1133 5.68142 13.2599 5.5317 13.4096 5.44436C13.5594 5.35079 13.7465 5.304 13.9711 5.304C14.2955 5.304 14.5606 5.40693 14.7665 5.6128C14.9786 5.81243 15.0847 6.07132 15.0847 6.38948C15.0847 6.51425 15.0628 6.64213 15.0192 6.77314C14.9817 6.90415 14.9162 7.04139 14.8226 7.18487L8.02904 17.7028C7.76702 18.0896 7.39896 18.283 6.92484 18.283Z" fill="white"/>
</svg>
