<svg width="24" height="24" viewBox="0 0 24 24" fill="none" xmlns="http://www.w3.org/2000/svg">
<path fill-rule="evenodd" clip-rule="evenodd" d="M22.1646 8.28859L20.4268 4.2338C20.1692 3.6326 20.0403 3.332 19.8328 3.11134C19.6494 2.91631 19.4229 2.76695 19.1714 2.67521C18.8869 2.57141 18.5598 2.57141 17.9057 2.57141H6.09442C5.44033 2.57141 5.11329 2.57141 4.82873 2.67521C4.57723 2.76695 4.35071 2.91631 4.16732 3.11134C3.95983 3.332 3.831 3.6326 3.57334 4.2338L1.83557 8.28859H22.1646ZM3.42863 13.3034C3.89624 13.4749 4.40148 13.5686 4.92864 13.5686C5.79697 13.5686 6.6066 13.3137 7.28578 12.8758C7.96496 13.3137 8.77458 13.5686 9.64292 13.5686C10.5113 13.5686 11.3209 13.3137 12.0001 12.8758C12.6792 13.3137 13.4889 13.5686 14.3572 13.5686C15.2255 13.5686 16.0352 13.3137 16.7144 12.8758C17.3935 13.3137 18.2032 13.5686 19.0715 13.5686C19.5987 13.5686 20.1039 13.4749 20.5715 13.3034V18.6857C20.5715 19.6458 20.5715 20.1258 20.3846 20.4926C20.2203 20.8151 19.958 21.0774 19.6355 21.2417C19.2688 21.4286 18.7887 21.4286 17.8286 21.4286H6.17149C5.2114 21.4286 4.73135 21.4286 4.36465 21.2417C4.04208 21.0774 3.77983 20.8151 3.61548 20.4926C3.42863 20.1258 3.42863 19.6458 3.42863 18.6857V13.3034ZM5.14288 16.8C5.14288 16.3199 5.14288 16.0799 5.2363 15.8966C5.31848 15.7353 5.44961 15.6042 5.61089 15.522C5.79424 15.4286 6.03427 15.4286 6.51431 15.4286H9.77145C10.2515 15.4286 10.4915 15.4286 10.6749 15.522C10.8362 15.6042 10.9673 15.7353 11.0495 15.8966C11.1429 16.0799 11.1429 16.3199 11.1429 16.8V18.3428C11.1429 18.8229 11.1429 19.0629 11.0495 19.2463C10.9673 19.4075 10.8362 19.5387 10.6749 19.6208C10.4915 19.7143 10.2515 19.7143 9.77145 19.7143H6.51431C6.03427 19.7143 5.79424 19.7143 5.61089 19.6208C5.44961 19.5387 5.31848 19.4075 5.2363 19.2463C5.14288 19.0629 5.14288 18.8229 5.14288 18.3428V16.8ZM4.92857 12.4286C3.22537 12.4286 1.83158 11.1038 1.72131 9.42855H22.2787C22.1684 11.1038 20.7746 12.4286 19.0714 12.4286C18.1401 12.4286 17.3013 12.0325 16.7143 11.3996C16.1273 12.0325 15.2885 12.4286 14.3571 12.4286C13.4258 12.4286 12.587 12.0325 12 11.3996C11.413 12.0325 10.5742 12.4286 9.64285 12.4286C8.71155 12.4286 7.87275 12.0325 7.28571 11.3996C6.69868 12.0325 5.85988 12.4286 4.92857 12.4286Z" fill="#1A4265"/>
</svg>
