<svg width="22" height="20" viewBox="0 0 22 20" fill="none" xmlns="http://www.w3.org/2000/svg">
<path fill-rule="evenodd" clip-rule="evenodd" d="M21.1646 6.28859L19.4268 2.2338C19.1691 1.6326 19.0403 1.332 18.8328 1.11134C18.6494 0.916312 18.4229 0.766948 18.1714 0.675209C17.8869 0.571411 17.5598 0.571411 16.9057 0.571411H5.09441C4.44032 0.571411 4.11327 0.571411 3.82871 0.675209C3.57722 0.766948 3.3507 0.916312 3.16731 1.11134C2.95981 1.332 2.83098 1.6326 2.57332 2.2338L0.835556 6.28859H21.1646ZM2.42863 11.3034C2.89624 11.4749 3.40147 11.5686 3.92862 11.5686C4.79696 11.5686 5.60659 11.3137 6.28577 10.8758C6.96494 11.3137 7.77457 11.5686 8.64291 11.5686C9.51125 11.5686 10.3209 11.3137 11.0001 10.8758C11.6792 11.3137 12.4889 11.5686 13.3572 11.5686C14.2255 11.5686 15.0352 11.3137 15.7143 10.8758C16.3935 11.3137 17.2031 11.5686 18.0715 11.5686C18.5986 11.5686 19.1039 11.4749 19.5715 11.3034V16.6857C19.5715 17.6458 19.5715 18.1258 19.3846 18.4926C19.2203 18.8151 18.958 19.0774 18.6355 19.2417C18.2688 19.4286 17.7887 19.4286 16.8286 19.4286H5.17149C4.2114 19.4286 3.73136 19.4286 3.36465 19.2417C3.04209 19.0774 2.77983 18.8151 2.61548 18.4926C2.42863 18.1258 2.42863 17.6458 2.42863 16.6857V11.3034ZM4.14288 14.8C4.14288 14.3199 4.14288 14.0799 4.2363 13.8966C4.31848 13.7353 4.44961 13.6042 4.61089 13.522C4.79424 13.4286 5.03426 13.4286 5.51431 13.4286H8.77145C9.2515 13.4286 9.49152 13.4286 9.67487 13.522C9.83615 13.6042 9.96728 13.7353 10.0495 13.8966C10.1429 14.0799 10.1429 14.3199 10.1429 14.8V16.3428C10.1429 16.8229 10.1429 17.0629 10.0495 17.2463C9.96728 17.4075 9.83615 17.5387 9.67487 17.6208C9.49152 17.7143 9.2515 17.7143 8.77145 17.7143H5.51431C5.03426 17.7143 4.79424 17.7143 4.61089 17.6208C4.44961 17.5387 4.31848 17.4075 4.2363 17.2463C4.14288 17.0629 4.14288 16.8229 4.14288 16.3428V14.8ZM3.92855 10.4286C2.22536 10.4286 0.831567 9.10385 0.721298 7.42855H21.2787C21.1684 9.10385 19.7746 10.4286 18.0714 10.4286C17.1401 10.4286 16.3013 10.0325 15.7143 9.39958C15.1272 10.0325 14.2884 10.4286 13.3571 10.4286C12.4258 10.4286 11.587 10.0325 11 9.39958C10.413 10.0325 9.57415 10.4286 8.64284 10.4286C7.71153 10.4286 6.87273 10.0325 6.2857 9.39958C5.69866 10.0325 4.85986 10.4286 3.92855 10.4286Z" fill="#999999"/>
</svg>
