<svg width="30" height="30" viewBox="0 0 30 30" fill="none" xmlns="http://www.w3.org/2000/svg">
<path d="M14.9999 11.25C12.9288 11.25 11.2499 12.9289 11.2499 15C11.2499 17.0711 12.9288 18.75 14.9999 18.75C17.0709 18.75 18.7499 17.0711 18.7499 15C18.7499 12.9289 17.0709 11.25 14.9999 11.25ZM13.1249 15C13.1249 13.9645 13.9643 13.125 14.9999 13.125C16.0354 13.125 16.8749 13.9645 16.8749 15C16.8749 16.0355 16.0354 16.875 14.9999 16.875C13.9643 16.875 13.1249 16.0355 13.1249 15Z" fill="#CBCBD5"/>
<path d="M19.9088 8.24663C19.1869 8.37773 18.4949 7.90126 18.3632 7.1824L17.8762 4.52781C17.8278 4.26402 17.6243 4.05541 17.3609 3.99961C16.5903 3.83641 15.8003 3.75342 15 3.75342C14.1992 3.75342 13.4087 3.83652 12.6377 3.99991C12.3743 4.05576 12.1707 4.26449 12.1224 4.52839L11.6368 7.18251C11.6239 7.25309 11.6052 7.32259 11.5809 7.39026C11.3339 8.07837 10.5735 8.43685 9.88241 8.19094L7.33341 7.28344C7.08006 7.19324 6.79708 7.26409 6.61671 7.46288C5.5501 8.63843 4.74173 10.0255 4.251 11.5367C4.16822 11.7916 4.24804 12.0711 4.45316 12.2445L6.51926 13.9911C6.57424 14.0376 6.62535 14.0885 6.67206 14.1433C7.14707 14.7003 7.07865 15.5352 6.51925 16.0082L4.45316 17.7548C4.24804 17.9282 4.16822 18.2077 4.251 18.4626C4.74173 19.9738 5.5501 21.3609 6.61671 22.5365C6.79708 22.7353 7.08006 22.8061 7.33341 22.7159L9.88253 21.8083C9.95038 21.7843 10.0202 21.7655 10.0912 21.7526C10.8131 21.6215 11.5052 22.0979 11.6368 22.8168L12.1224 25.4709C12.1707 25.7349 12.3743 25.9436 12.6377 25.9994C13.4087 26.1628 14.1992 26.2458 15 26.2458C15.8003 26.2458 16.5903 26.1629 17.3609 25.9996C17.6243 25.9439 17.8278 25.7353 17.8762 25.4714L18.3632 22.817C18.3761 22.7461 18.3948 22.6768 18.4191 22.6091C18.6661 21.9209 19.4265 21.5624 20.1176 21.8083L22.6665 22.7159C22.92 22.8061 23.2029 22.7353 23.3833 22.5365C24.45 21.3609 25.2583 19.9738 25.749 18.4626C25.8319 18.2077 25.752 17.9282 25.5469 17.7548L23.4808 16.0082C23.4257 15.9617 23.3747 15.9108 23.328 15.856C22.8529 15.299 22.9213 14.4641 23.4808 13.9911L25.5469 12.2445C25.752 12.0711 25.8319 11.7916 25.749 11.5367C25.2583 10.0255 24.45 8.63843 23.3833 7.46288C23.2029 7.26409 22.92 7.19324 22.6665 7.28344L20.1174 8.19098C20.0496 8.21511 19.9798 8.23375 19.9088 8.24663ZM7.49743 9.33212L9.25354 9.95732C10.9128 10.5477 12.7476 9.69004 13.3457 8.02364C13.4044 7.85989 13.4498 7.6912 13.4812 7.51997L13.8138 5.70188C14.2044 5.65311 14.6003 5.62842 15 5.62842C15.3994 5.62842 15.7949 5.65307 16.1853 5.70177L16.519 7.52071C16.8385 9.26376 18.5112 10.4061 20.2438 10.0915C20.4144 10.0605 20.5828 10.0156 20.7463 9.95738L22.5026 9.33212C22.9808 9.95759 23.3783 10.6399 23.6848 11.3635L22.2701 12.5593C20.9186 13.702 20.7516 15.7244 21.9013 17.0727C22.014 17.2049 22.1376 17.3279 22.2703 17.4401L23.6848 18.6358C23.3783 19.3593 22.9808 20.0416 22.5026 20.6671L20.7461 20.0418C19.0869 19.4514 17.2524 20.3092 16.6543 21.9757C16.5956 22.1394 16.5502 22.3081 16.5188 22.4793L16.1853 24.2975C15.7949 24.3463 15.3994 24.3708 15 24.3708C14.6003 24.3708 14.2044 24.3463 13.8138 24.2973L13.4811 22.4791C13.1618 20.7358 11.4889 19.5931 9.75619 19.9078C9.58551 19.9389 9.41719 19.9837 9.25365 20.042L7.49743 20.6671C7.0192 20.0416 6.62177 19.3593 6.31526 18.6358L7.72982 17.44C9.08143 16.2973 9.24852 14.2749 8.09875 12.9266C7.98595 12.7943 7.86248 12.6714 7.72976 12.5592L6.31526 11.3635C6.62177 10.6399 7.0192 9.95759 7.49743 9.33212Z" fill="#CBCBD5"/>
</svg>
