<svg width="16" height="20" viewBox="0 0 16 20" fill="none" xmlns="http://www.w3.org/2000/svg">
<path d="M7.54862 20C6.03121 20 4.70588 19.738 3.57263 19.2141C2.44578 18.6901 1.56863 17.9565 0.941176 17.0134C0.313726 16.0703 0 14.9669 0 13.7032C0 13.0374 0.0544218 12.4457 0.163265 11.9279C0.278511 11.4101 0.416166 10.9447 0.57623 10.5317C0.742697 10.1125 0.909164 9.71798 1.07563 9.34813C1.2421 8.97827 1.37975 8.6115 1.4886 8.2478C1.59744 7.88411 1.65186 7.49576 1.65186 7.08276C1.65186 6.87933 1.63906 6.65742 1.61345 6.41701C1.59424 6.17044 1.58463 5.9886 1.58463 5.87147C1.58463 5.66805 1.64546 5.50162 1.76711 5.37217C1.88876 5.24272 2.04882 5.17799 2.2473 5.17799C2.58663 5.17799 2.92917 5.27662 3.27491 5.47388C3.62705 5.67114 3.94078 5.94545 4.21609 6.29681C4.4978 6.64201 4.71229 7.04269 4.85954 7.49884L4.37935 7.59131C4.53301 7.33241 4.62905 7.10433 4.66747 6.90707C4.71229 6.70365 4.73469 6.49715 4.73469 6.28756C4.72829 5.6773 4.60984 5.09786 4.37935 4.54924C4.15526 4.00062 3.86715 3.47973 3.51501 2.98659C3.16927 2.49345 2.80752 2.02805 2.42977 1.59038C2.32733 1.47943 2.2505 1.36539 2.19928 1.24827C2.14806 1.13115 2.12245 1.01402 2.12245 0.896902C2.12245 0.601017 2.2537 0.379103 2.51621 0.23116C2.78511 0.0770535 3.14686 0 3.60144 0C4.44658 0 5.33653 0.0986284 6.27131 0.295885C7.21248 0.486978 8.14406 0.789028 9.06603 1.20203C9.9944 1.60888 10.8748 2.12976 11.7071 2.76468C12.5394 3.39344 13.2757 4.14239 13.916 5.01156C14.5626 5.87456 15.0716 6.86392 15.443 7.97966C15.8143 9.09539 16 10.3437 16 11.7245C16 12.9635 15.7983 14.0915 15.395 15.1086C14.998 16.1258 14.425 16.998 13.6759 17.7254C12.9268 18.4528 12.0336 19.0137 10.9964 19.4082C9.96559 19.8027 8.81633 20 7.54862 20ZM7.76951 17.4018C8.53141 17.4018 9.16206 17.2415 9.66146 16.9209C10.1673 16.6004 10.545 16.1781 10.7947 15.6542C11.0444 15.1302 11.1693 14.5631 11.1693 13.9528C11.1693 13.3487 11.0476 12.7416 10.8043 12.1313C10.5674 11.521 10.2121 10.957 9.7383 10.4392C9.26451 9.9214 8.67547 9.50223 7.97119 9.18169C7.92637 9.1632 7.89116 9.16628 7.86555 9.19094C7.83994 9.20943 7.83033 9.24025 7.83673 9.2834C7.91997 10.0416 7.90716 10.7474 7.79832 11.4008C7.68948 12.0481 7.507 12.5381 7.2509 12.871C7.12925 12.6059 6.9916 12.3594 6.83793 12.1313C6.69068 11.8971 6.505 11.6844 6.28091 11.4933C6.2489 11.4686 6.21689 11.4625 6.18487 11.4748C6.15926 11.481 6.14326 11.5056 6.13685 11.5488C6.09844 11.8138 6.0088 12.0573 5.86795 12.2792C5.72709 12.495 5.57343 12.7231 5.40696 12.9635C5.2405 13.1977 5.09324 13.4628 4.96519 13.7587C4.84354 14.0484 4.78271 14.3967 4.78271 14.8035C4.78271 15.5802 5.05482 16.209 5.59904 16.6898C6.14966 17.1644 6.87315 17.4018 7.76951 17.4018Z" fill="#999999"/>
</svg>
