<svg width="22" height="20" viewBox="0 0 22 20" fill="none" xmlns="http://www.w3.org/2000/svg">
<path fill-rule="evenodd" clip-rule="evenodd" d="M7.46959 5.63535L9.94359 0.806922C10.229 0.249895 10.9191 0.0261087 11.4849 0.307081C11.707 0.417387 11.8867 0.59578 11.9969 0.815377L14.3334 5.47184C14.5242 5.85223 14.8974 6.11195 15.3253 6.16226L20.218 6.73746C20.8822 6.81555 21.3564 7.40893 21.277 8.06283C21.2444 8.33213 21.1194 8.58243 20.9228 8.77241L17.0556 12.5091C16.8995 12.66 16.8238 12.874 16.851 13.0877L17.4937 18.1325C17.5857 18.8547 17.0656 19.5135 16.332 19.6041C16.0539 19.6384 15.772 19.586 15.5258 19.4542L11.4401 17.267C11.1445 17.1087 10.7886 17.1042 10.4889 17.2548L6.25578 19.3827C5.66002 19.6822 4.93044 19.4495 4.62623 18.863C4.51241 18.6436 4.47044 18.3948 4.50609 18.151L4.84442 15.8364C5.0099 14.7044 5.72459 13.7224 6.76023 13.2041L11.4619 10.8513C11.5874 10.7885 11.6374 10.6373 11.5736 10.5138C11.5242 10.418 11.4183 10.3638 11.3103 10.379L5.56024 11.1861C4.68123 11.3094 3.7898 11.0663 3.10063 10.5151L1.18541 8.98355C0.638868 8.54648 0.555718 7.756 0.99969 7.21795C1.20615 6.96774 1.50249 6.80532 1.82729 6.76436L6.73734 6.14512C7.05225 6.10541 7.32661 5.91441 7.46959 5.63535Z" fill="#999999"/>
</svg>
