<svg width="24" height="24" viewBox="0 0 24 24" fill="none" xmlns="http://www.w3.org/2000/svg">
<path fill-rule="evenodd" clip-rule="evenodd" d="M8.46959 7.63535L10.9436 2.80692C11.229 2.2499 11.9191 2.02611 12.4849 2.30708C12.707 2.41739 12.8867 2.59578 12.9969 2.81538L15.3334 7.47184C15.5242 7.85223 15.8974 8.11195 16.3253 8.16226L21.218 8.73746C21.8822 8.81555 22.3564 9.40893 22.277 10.0628C22.2444 10.3321 22.1194 10.5824 21.9228 10.7724L18.0556 14.5091C17.8995 14.66 17.8238 14.874 17.851 15.0877L18.4937 20.1325C18.5857 20.8547 18.0656 21.5135 17.332 21.6041C17.0539 21.6384 16.772 21.586 16.5258 21.4542L12.4401 19.267C12.1445 19.1087 11.7886 19.1042 11.4889 19.2548L7.25578 21.3827C6.66002 21.6822 5.93044 21.4495 5.62623 20.863C5.51241 20.6436 5.47044 20.3948 5.50609 20.151L5.84442 17.8364C6.0099 16.7044 6.72459 15.7224 7.76023 15.2041L12.4619 12.8513C12.5874 12.7885 12.6374 12.6373 12.5736 12.5138C12.5242 12.418 12.4183 12.3638 12.3103 12.379L6.56024 13.1861C5.68123 13.3094 4.7898 13.0663 4.10063 12.5151L2.18541 10.9836C1.63887 10.5465 1.55572 9.756 1.99969 9.21795C2.20615 8.96774 2.50249 8.80532 2.82729 8.76436L7.73734 8.14512C8.05225 8.10541 8.32661 7.91441 8.46959 7.63535Z" fill="#1A4265"/>
</svg>
