<svg width="54" height="60" viewBox="0 0 54 60" fill="none" xmlns="http://www.w3.org/2000/svg">
<path d="M21 48C21.7956 48 22.5587 47.6839 23.1213 47.1213C23.6839 46.5587 24 45.7956 24 45V27C24 26.2044 23.6839 25.4413 23.1213 24.8787C22.5587 24.3161 21.7956 24 21 24C20.2044 24 19.4413 24.3161 18.8787 24.8787C18.3161 25.4413 18 26.2044 18 27V45C18 45.7956 18.3161 46.5587 18.8787 47.1213C19.4413 47.6839 20.2044 48 21 48ZM51 12H39V9C39 6.61305 38.0518 4.32387 36.364 2.63604C34.6761 0.948212 32.3869 0 30 0H24C21.6131 0 19.3239 0.948212 17.636 2.63604C15.9482 4.32387 15 6.61305 15 9V12H3C2.20435 12 1.44129 12.3161 0.87868 12.8787C0.31607 13.4413 0 14.2044 0 15C0 15.7956 0.31607 16.5587 0.87868 17.1213C1.44129 17.6839 2.20435 18 3 18H6V51C6 53.3869 6.94821 55.6761 8.63604 57.364C10.3239 59.0518 12.6131 60 15 60H39C41.3869 60 43.6761 59.0518 45.364 57.364C47.0518 55.6761 48 53.3869 48 51V18H51C51.7956 18 52.5587 17.6839 53.1213 17.1213C53.6839 16.5587 54 15.7956 54 15C54 14.2044 53.6839 13.4413 53.1213 12.8787C52.5587 12.3161 51.7956 12 51 12ZM21 9C21 8.20435 21.3161 7.44129 21.8787 6.87868C22.4413 6.31607 23.2044 6 24 6H30C30.7956 6 31.5587 6.31607 32.1213 6.87868C32.6839 7.44129 33 8.20435 33 9V12H21V9ZM42 51C42 51.7956 41.6839 52.5587 41.1213 53.1213C40.5587 53.6839 39.7956 54 39 54H15C14.2044 54 13.4413 53.6839 12.8787 53.1213C12.3161 52.5587 12 51.7956 12 51V18H42V51ZM33 48C33.7956 48 34.5587 47.6839 35.1213 47.1213C35.6839 46.5587 36 45.7956 36 45V27C36 26.2044 35.6839 25.4413 35.1213 24.8787C34.5587 24.3161 33.7956 24 33 24C32.2044 24 31.4413 24.3161 30.8787 24.8787C30.3161 25.4413 30 26.2044 30 27V45C30 45.7956 30.3161 46.5587 30.8787 47.1213C31.4413 47.6839 32.2044 48 33 48Z" fill="#D53E76"/>
</svg>
